<svg width="336" height="89" viewBox="0 0 336 89" fill="none" xmlns="http://www.w3.org/2000/svg">
<rect width="336" height="89" fill="#1E1E1E"/>
<path d="M0 0H336V89H0V0Z" fill="#808080" fill-opacity="0.16"/>
<rect x="13" y="11" width="52" height="71" fill="black"/>
<path d="M22.776 68V23.648H33.272V68H22.776ZM45.688 23.648H56.696L44.152 43.552L57.912 68H45.816L33.592 44.32L45.688 23.648Z" fill="white"/>
<path d="M76.575 32.864C81.7377 32.864 85.7697 34.5067 88.671 37.792C91.615 41.0347 93.087 45.408 93.087 50.912C93.087 56.6293 91.6363 61.088 88.735 64.288C85.8337 67.488 81.7803 69.088 76.575 69.088C71.3697 69.088 67.3163 67.5093 64.415 64.352C61.5137 61.152 60.063 56.6933 60.063 50.976C60.063 47.3493 60.703 44.192 61.983 41.504C63.3057 38.7733 65.2043 36.6613 67.679 35.168C70.1963 33.632 73.1617 32.864 76.575 32.864ZM76.575 40.352C74.4843 40.352 72.9483 41.2053 71.967 42.912C70.9857 44.576 70.495 47.264 70.495 50.976C70.495 54.7307 70.9857 57.4613 71.967 59.168C72.9483 60.832 74.4843 61.664 76.575 61.664C78.6657 61.664 80.2017 60.8107 81.183 59.104C82.1643 57.3973 82.655 54.6667 82.655 50.912C82.655 47.2427 82.1643 44.576 81.183 42.912C80.2017 41.2053 78.6657 40.352 76.575 40.352ZM129.67 20.512V68H120.71L120.198 64.288C119.174 65.7387 117.873 66.912 116.294 67.808C114.715 68.6613 112.881 69.088 110.79 69.088C106.694 69.088 103.579 67.4667 101.446 64.224C99.3553 60.9813 98.31 56.544 98.31 50.912C98.31 47.4133 98.8647 44.2987 99.974 41.568C101.083 38.8373 102.662 36.704 104.71 35.168C106.758 33.632 109.147 32.864 111.878 32.864C114.95 32.864 117.51 33.9307 119.558 36.064V19.424L129.67 20.512ZM114.566 40.288C112.731 40.288 111.302 41.1627 110.278 42.912C109.254 44.6187 108.742 47.3067 108.742 50.976C108.742 54.9013 109.19 57.6747 110.086 59.296C111.025 60.8747 112.326 61.664 113.99 61.664C116.123 61.664 117.979 60.3627 119.558 57.76V43.104C118.833 42.1653 118.065 41.4613 117.254 40.992C116.486 40.5227 115.59 40.288 114.566 40.288ZM153.261 16.224C155.01 16.224 156.44 16.7787 157.549 17.888C158.658 18.9547 159.213 20.2987 159.213 21.92C159.213 23.584 158.658 24.9493 157.549 26.016C156.44 27.0827 155.01 27.616 153.261 27.616C151.512 27.616 150.061 27.0827 148.909 26.016C147.8 24.9067 147.245 23.5413 147.245 21.92C147.245 20.2987 147.8 18.9547 148.909 17.888C150.061 16.7787 151.512 16.224 153.261 16.224ZM159.341 61.088H168.045V68H139.629V61.088H149.229V40.928H139.949V34.016H159.341V61.088ZM187.092 68H176.98V20.512L187.092 19.424V68ZM198.036 49.056L210.132 68H198.612L187.476 49.376L198.676 34.016H209.236L198.036 49.056ZM222.971 61.92C222.971 60 223.654 58.336 225.019 56.928C226.427 55.52 228.112 54.816 230.075 54.816C232.038 54.816 233.702 55.52 235.067 56.928C236.475 58.336 237.179 60 237.179 61.92C237.179 63.8827 236.475 65.568 235.067 66.976C233.702 68.384 232.038 69.088 230.075 69.088C228.112 69.088 226.427 68.384 225.019 66.976C223.654 65.568 222.971 63.8827 222.971 61.92Z" fill="white"/>
<path d="M272.93 16.224C274.637 16.224 276.045 16.7787 277.154 17.888C278.306 18.9547 278.882 20.2987 278.882 21.92C278.882 23.5413 278.306 24.9067 277.154 26.016C276.045 27.0827 274.637 27.616 272.93 27.616C271.138 27.616 269.687 27.0827 268.578 26.016C267.469 24.9493 266.914 23.584 266.914 21.92C266.914 20.2987 267.469 18.9547 268.578 17.888C269.73 16.7787 271.181 16.224 272.93 16.224ZM279.458 58.144C279.458 62.9653 278.562 66.9547 276.77 70.112C274.978 73.312 272.311 75.8507 268.77 77.728C265.271 79.648 260.77 81.1413 255.266 82.208L253.73 74.464C257.357 73.6533 260.279 72.6507 262.498 71.456C264.759 70.2613 266.466 68.6613 267.618 66.656C268.77 64.608 269.346 61.984 269.346 58.784V40.928H257.186V34.016H279.458V58.144ZM305.737 61.856C307.486 61.856 308.852 61.6 309.833 61.088C310.857 60.5333 311.369 59.7227 311.369 58.656C311.369 57.888 311.156 57.2693 310.729 56.8C310.345 56.3307 309.598 55.8827 308.489 55.456C307.38 54.9867 305.652 54.432 303.305 53.792C299.892 52.896 297.289 51.6587 295.497 50.08C293.705 48.4587 292.809 46.24 292.809 43.424C292.809 40.3093 294.089 37.7707 296.649 35.808C299.252 33.8453 302.878 32.864 307.529 32.864C312.905 32.864 317.492 34.2507 321.289 37.024L317.257 42.976C314.142 41.056 311.006 40.096 307.849 40.096C306.185 40.096 304.948 40.3093 304.137 40.736C303.369 41.1627 302.985 41.824 302.985 42.72C302.985 43.3173 303.177 43.8293 303.561 44.256C303.988 44.64 304.756 45.0453 305.865 45.472C307.017 45.8987 308.724 46.432 310.985 47.072C313.417 47.7547 315.401 48.5013 316.937 49.312C318.516 50.1227 319.732 51.2107 320.585 52.576C321.438 53.9413 321.865 55.6907 321.865 57.824C321.865 60.2133 321.14 62.2613 319.689 63.968C318.238 65.6747 316.297 66.9547 313.865 67.808C311.433 68.6613 308.745 69.088 305.801 69.088C302.644 69.088 299.785 68.64 297.225 67.744C294.665 66.848 292.489 65.5893 290.697 63.968L295.753 58.272C298.825 60.6613 302.153 61.856 305.737 61.856Z" fill="#FFF700"/>
</svg>
